<svg width="335" height="233" viewBox="0 0 335 233" fill="none" xmlns="http://www.w3.org/2000/svg">
<g clip-path="url(#clip0_1032_397)">
<rect width="335" height="233" fill="white"/>
<path d="M22.6335 63.2422H41.614" stroke="#F2F2F0" stroke-width="0.392871" stroke-miterlimit="10"/>
<path d="M22.6335 65.4053H28.2177" stroke="#F2F2F0" stroke-width="0.392871" stroke-miterlimit="10"/>
<path d="M331.44 115.021C333.233 115.021 334.686 113.547 334.686 111.73C334.686 109.913 333.233 108.439 331.44 108.439C329.648 108.439 328.195 109.913 328.195 111.73C328.195 113.547 329.648 115.021 331.44 115.021Z" stroke="#F2F2F0" stroke-width="0.690693" stroke-miterlimit="10"/>
<path d="M4.95002 137.166C7.51044 137.166 9.58607 135.062 9.58607 132.468C9.58607 129.874 7.51044 127.771 4.95002 127.771C2.3896 127.771 0.313965 129.874 0.313965 132.468C0.313965 135.062 2.3896 137.166 4.95002 137.166Z" stroke="#F2F2F0" stroke-width="0.690693" stroke-miterlimit="10"/>
<path d="M181.423 34.5631C181.413 34.9059 181.303 35.2385 181.106 35.5191C180.909 35.7998 180.633 36.016 180.314 36.141C179.994 36.2659 179.645 36.2938 179.309 36.2214C178.974 36.1489 178.668 35.9792 178.428 35.7336C178.189 35.4879 178.027 35.1771 177.963 34.8401C177.9 34.5031 177.937 34.1548 178.07 33.8388C178.204 33.5228 178.427 33.2532 178.713 33.0635C178.999 32.8738 179.334 32.7726 179.678 32.7725C180.146 32.7816 180.591 32.9747 180.918 33.3098C181.244 33.645 181.426 34.0953 181.423 34.5631Z" stroke="#F2F2F0" stroke-width="0.690693" stroke-miterlimit="10"/>
<path d="M29.3694 24.9527H105.035C105.035 24.9527 104.675 21.947 96.2635 19.5459C87.8523 17.1448 81.826 23.3016 72.3212 19.5459C62.8165 15.7902 57.779 10.4066 45.5345 13.4065C33.29 16.4064 29.3694 24.9527 29.3694 24.9527Z" stroke="#B7B7B7" stroke-width="0.69703" stroke-linecap="round" stroke-linejoin="round"/>
<path d="M269.258 51.4764H308.388C308.388 51.4764 308.196 49.5869 303.851 48.0753C299.505 46.5637 296.382 50.4357 291.466 48.0753C286.551 45.7149 283.945 42.3254 277.616 44.2149C275.78 44.7478 274.081 45.6732 272.638 46.927C271.195 48.1808 270.041 49.733 269.258 51.4764V51.4764Z" stroke="#B7B7B7" stroke-width="0.69703" stroke-linecap="round" stroke-linejoin="round"/>
<path d="M228.697 86.8174H95.5481V220.32H228.697V86.8174Z" fill="#F2F2F0"/>
<path d="M228.65 65.6214V86.6209H95.5012V65.6214C95.5012 63.6169 96.2979 61.6945 97.7161 60.2771C99.1342 58.8598 101.058 58.0635 103.063 58.0635H221.093C223.098 58.065 225.02 58.862 226.437 60.2792C227.854 61.6964 228.65 63.6179 228.65 65.6214Z" fill="#008BD9"/>
<path d="M208.064 77.562C211.524 77.562 214.329 74.7587 214.329 71.3005C214.329 67.8424 211.524 65.0391 208.064 65.0391C204.604 65.0391 201.799 67.8424 201.799 71.3005C201.799 74.7587 204.604 77.562 208.064 77.562Z" fill="#0049D6"/>
<path d="M208.064 73.6556C209.016 73.6556 209.929 73.2777 210.602 72.605C211.275 71.9323 211.653 71.0198 211.653 70.0685V53.8596C211.653 52.9082 211.275 51.9958 210.602 51.3231C209.929 50.6504 209.016 50.2725 208.064 50.2725C207.112 50.2725 206.199 50.6504 205.526 51.3231C204.853 51.9958 204.475 52.9082 204.475 53.8596V70.0685C204.475 71.0198 204.853 71.9323 205.526 72.605C206.199 73.2777 207.112 73.6556 208.064 73.6556Z" fill="#9D9D9D"/>
<path d="M163.856 77.562C167.316 77.562 170.12 74.7587 170.12 71.3005C170.12 67.8424 167.316 65.0391 163.856 65.0391C160.396 65.0391 157.591 67.8424 157.591 71.3005C157.591 74.7587 160.396 77.562 163.856 77.562Z" fill="#0049D6"/>
<path d="M163.856 73.6556C164.808 73.6556 165.722 73.2779 166.396 72.6053C167.07 71.9328 167.449 71.0204 167.45 70.0685V53.8596C167.449 52.9077 167.07 51.9953 166.396 51.3228C165.722 50.6502 164.808 50.2725 163.856 50.2725C162.904 50.2725 161.991 50.6504 161.318 51.3231C160.645 51.9958 160.267 52.9082 160.267 53.8596V70.0685C160.267 71.0198 160.645 71.9323 161.318 72.605C161.991 73.2777 162.904 73.6556 163.856 73.6556Z" fill="#9D9D9D"/>
<path d="M119.647 77.562C123.107 77.562 125.912 74.7587 125.912 71.3005C125.912 67.8424 123.107 65.0391 119.647 65.0391C116.187 65.0391 113.383 67.8424 113.383 71.3005C113.383 74.7587 116.187 77.562 119.647 77.562Z" fill="#0049D6"/>
<path d="M119.653 73.6556C120.605 73.6556 121.518 73.2777 122.191 72.605C122.864 71.9323 123.242 71.0198 123.242 70.0685V53.8596C123.242 52.9082 122.864 51.9958 122.191 51.3231C121.518 50.6504 120.605 50.2725 119.653 50.2725C118.701 50.2725 117.788 50.6502 117.114 51.3228C116.44 51.9953 116.06 52.9077 116.059 53.8596V70.0685C116.06 71.0204 116.44 71.9328 117.114 72.6053C117.788 73.2779 118.701 73.6556 119.653 73.6556Z" fill="#9D9D9D"/>
<path d="M183.709 133.578H209.024V108.276H183.709V133.578Z" stroke="#D5BCB9" stroke-width="1.4004" stroke-miterlimit="10"/>
<path d="M150.029 133.578H175.344V108.276H150.029V133.578Z" stroke="#D5BCB9" stroke-width="1.4004" stroke-miterlimit="10"/>
<path d="M116.338 133.578H141.653V108.276H116.338V133.578Z" stroke="#D5BCB9" stroke-width="1.4004" stroke-miterlimit="10"/>
<path d="M183.709 165.693H209.024V140.392H183.709V165.693Z" stroke="#D5BCB9" stroke-width="1.4004" stroke-miterlimit="10"/>
<path d="M150.029 165.693H175.344V140.392H150.029V165.693Z" stroke="#D5BCB9" stroke-width="1.4004" stroke-miterlimit="10"/>
<path d="M116.338 165.693H141.653V140.392H116.338V165.693Z" fill="#555555"/>
<path d="M125.488 149.427L132.509 156.659" stroke="#F2F2F0" stroke-width="1.28" stroke-miterlimit="10"/>
<path d="M132.509 149.427L125.488 156.659" stroke="#F2F2F0" stroke-width="1.28" stroke-miterlimit="10"/>
<path d="M183.709 197.814H209.024V172.513H183.709V197.814Z" stroke="#D5BCB9" stroke-width="1.4004" stroke-miterlimit="10"/>
<path d="M150.029 197.814H175.344V172.513H150.029V197.814Z" stroke="#D5BCB9" stroke-width="1.4004" stroke-miterlimit="10"/>
<path d="M116.338 197.814H141.653V172.513H116.338V197.814Z" stroke="#D5BCB9" stroke-width="1.4004" stroke-miterlimit="10"/>
</g>
<defs>
<clipPath id="clip0_1032_397">
<rect width="335" height="233" fill="white"/>
</clipPath>
</defs>
</svg>
